<?xml version="1.0" encoding="UTF-8"?> <svg xmlns="http://www.w3.org/2000/svg" xmlns:xlink="http://www.w3.org/1999/xlink" width="583px" height="271px" viewBox="0 0 583 271"><!-- Generator: Sketch 52.5 (67469) - http://www.bohemiancoding.com/sketch --><title>header-icon-ilust</title><desc>Created with Sketch.</desc><defs><linearGradient x1="100%" y1="0%" x2="0%" y2="100%" id="linearGradient-1"><stop stop-color="#58BA52" offset="0%"></stop><stop stop-color="#2F8F83" offset="100%"></stop></linearGradient></defs><g id="Pages" stroke="none" stroke-width="1" fill="none" fill-rule="evenodd"><g id="Company" transform="translate(-507.000000, -753.000000)"><g id="Hero" transform="translate(-2.000000, 0.000000)"><g id="header-icon-ilust" transform="translate(511.000000, 756.000000)"><path d="M1.46266338,267.293001 L1.46266338,210.489175" id="Path-29" stroke="#FFFFFF" stroke-width="5"></path><path d="M281,156 L286.182896,171.660697 C288.856693,179.739874 297.573701,184.1218 305.652878,181.448002 C308.327122,180.562964 310.707595,178.961794 312.535534,176.818546 C318.542571,169.775327 329.121893,168.935336 336.165112,174.942373 C338.179077,176.660048 339.757598,178.830287 340.771435,181.275405 L372.339769,257.410177" id="Path-28" stroke="#FFFFFF" stroke-width="5"></path><circle id="Oval-9" stroke="#FFFFFF" stroke-width="5" cx="562" cy="229" r="16"></circle><polyline id="Path-19" stroke="#FFFFFF" stroke-width="5" points="352 5 365.843794 45.2952748 430.504644 36.5376698 430.504644 66.9495411"></polyline><circle id="Oval-9-Copy" stroke="#FFFFFF" stroke-width="5" cx="325" cy="194" r="8"></circle><circle id="Oval-9-Copy-3" stroke="#FFFFFF" stroke-width="5" cx="19" cy="170" r="8"></circle><circle id="Oval-9-Copy-2" stroke="#FFFFFF" stroke-width="5" cx="96.5" cy="125.5" r="24.5"></circle><circle id="Oval-9-Copy-4" stroke="#FFFFFF" stroke-width="5" cx="127" cy="76" r="5"></circle><circle id="Oval-9-Copy-5" stroke="#FFFFFF" stroke-width="5" cx="147" cy="156" r="5"></circle><circle id="Oval-9-Copy-6" stroke="#FFFFFF" stroke-width="5" cx="437" cy="176" r="5"></circle><path d="M79.105291,75.1774366 C106.160571,47.1028591 141.377258,26.8246896 184.755354,14.3429282" id="Path-20" stroke="#FFFFFF" stroke-width="5" transform="translate(131.930322, 44.760182) rotate(1.000000) translate(-131.930322, -44.760182) "></path><polygon id="Path-21" stroke="#FFFFFF" stroke-width="5" points="164 119.849006 215.631172 93 215.631172 151.969613 189.815586 151.969613"></polygon><path d="M263,119.904378 C333.146469,106.25594 397.502692,121.094275 456.068668,164.419385" id="Path-22" stroke="#FFFFFF" stroke-width="5"></path><polygon id="Path-26" stroke="#FFFFFF" stroke-width="5" points="366.96679 153.540268 393.144381 209.244271 412.471956 201.85401"></polygon><path d="M57.1689825,200.397677 L67.2384377,190.328222 C73.7003099,183.86635 84.1770748,183.86635 90.6389471,190.328222 C97.1008193,196.790094 107.577584,196.790094 114.039456,190.328222 L118.255415,186.112264 C126.520294,177.847385 139.879012,177.715334 148.305657,185.815218 L151.983132,189.350091 C158.367109,195.486516 168.487596,195.386475 174.74902,189.125051" id="Path-23" stroke="#FFFFFF" stroke-width="5"></path><path d="M450,104.27242 L457.58592,96.6865001 C462.454032,91.8183873 470.346803,91.8183873 475.214916,96.6865001 C480.083028,101.554613 487.975799,101.554613 492.843911,96.6865001 L496.020044,93.5103679 C502.246469,87.2839428 512.310386,87.1844612 518.658679,93.2865854 L521.42914,95.949616 C526.238569,100.57255 533.862934,100.497183 538.580037,95.7800797" id="Path-23-Copy" stroke="#FFFFFF" stroke-width="5" transform="translate(494.290018, 96.523448) rotate(44.000000) translate(-494.290018, -96.523448) "></path><path d="M226,0 L318,0 L317.049594,77.1967951 C317.035996,78.3012809 316.129611,79.1856203 315.025125,79.1720224 C314.588524,79.1666472 314.165678,79.0185414 313.821143,78.7503169 L294.87458,64.0001932 L226,59 L226,0 Z" id="Rectangle-30" stroke="#FFFFFF" stroke-width="5"></path><path d="M331.5,2.5 L331.5,80.7304289" id="Line-4" stroke="#FFFFFF" stroke-width="5"></path><path d="M237.5,15.5 L288.5,18.5" id="Line-2" stroke="#FFFFFF" stroke-width="5"></path><path d="M235.692308,34.5 L304.5,40.5" id="Line-2-Copy" stroke="#FFFFFF" stroke-width="5"></path><polygon id="Path-25" stroke="#FFFFFF" stroke-width="5" points="471.267973 128.926721 480.691503 207.458134 523.880181 173.515032"></polygon><path d="M437.796748,114.294557 L453.068744,125.523613" id="Path-27" stroke="#FFFFFF" stroke-width="5"></path><g id="Path-24"></g><polygon id="Path-30" stroke="#FFFFFF" stroke-width="5" points="224.271636 175.643737 256.727839 155.294633 282.709442 204.146602 256.727839 218.442156"></polygon><path d="M372.419886,84.9982366 C390.539136,87.5748944 410.195983,95.925372 431.390427,110.049669" id="Path-26" stroke="#FFFFFF" stroke-width="5"></path><path d="M207.595702,178.975634 C205.682688,196.682057 211.802735,209.250969 225.955844,216.682369" id="Path-29" stroke="#FFFFFF" stroke-width="5"></path></g></g></g></g></svg> 